PathFileType	4	(X/Y/Z)	C:\Users\°ÂÌØÂü\Desktop\20210112\bx_y_5_501-Unnamed.trc
DataRate	CameraRate	NumFrames	NumMarkers	Units	OrigDataRate	OrigDataStartFrame	OrigNumFrames
50.00	50.00	       9	0	mm	50.00	260	       519
Frame#	Time	
		

260	5.180	-710.72955	273.90778	748.83752	-606.59869	94.52489	1423.40710	-662.55713	279.52954	878.21918	-605.27582	214.56863	824.77484	-717.20660	78.31952	216.84076	-610.45642	-5.89170	806.11432	-740.46991	250.59508	638.37592	-682.50793	277.67480	1541.80066	-682.74048	18.95599	522.16937	-743.36163	245.12355	575.98212	-784.41724	254.83276	502.68372	-689.02521	204.83914	534.98761	-664.77618	-82.76378	1541.19543	-712.56226	153.15939	217.52142	-772.36273	223.03291	204.83327	-882.65057	295.82376	144.33597	-675.54529	173.50420	157.21475	-595.23181	224.84242	173.50218	-667.29858	299.66489	158.84477	-629.77197	308.29016	161.05159	-562.18994	263.89261	165.42026	-528.11450	304.37653	146.40186	-684.27161	91.08926	1849.46826	-703.63080	-49.49278	708.60443	-625.16394	-79.38686	159.50954	-560.66766	-42.92598	161.64581	-517.73035	-72.78133	142.76030	-603.07806	18.49216	166.79208	-674.59369	54.79902	158.04025	-796.91620	172.49648	183.75887	-706.20221	81.17014	575.95056	-794.35370	57.56658	175.41676	-816.68427	97.30236	1047.50757	-779.29089	-33.90213	487.44315	-769.05194	-3.95728	206.16524	-876.07562	-78.94551	141.08192	-666.45929	-68.48253	161.82674	-734.02673	-23.29019	567.63293				-703.43134	143.53256	574.73132										-720.24634	-26.07285	614.91119	
261	5.200	-711.99011	274.17590	749.14691	-605.47906	94.42435	1423.18066	-664.12341	278.93805	878.00806	-606.29791	214.67589	824.89740	-717.61658	77.92998	216.70174	-611.28827	-6.07259	806.15515	-741.51788	250.78653	638.73413	-680.71002	276.85117	1541.21411	-683.85468	18.54544	522.13812	-744.45172	245.47142	575.95703	-784.78583	254.79472	502.58298	-690.00470	204.82423	534.70374	-662.67206	-83.01875	1541.39893	-712.73376	153.18774	217.52002	-772.44611	222.98729	204.98251	-882.59625	296.22037	144.63243	-675.30884	173.53528	157.49477	-595.27948	224.68745	173.49046	-667.31976	299.84894	159.03859	-629.69861	308.17868	161.00131	-562.09375	263.88101	165.46565	-528.16980	304.08307	146.45369	-680.12329	91.21828	1849.32532	-704.70581	-50.54021	708.33521	-625.03888	-79.36037	159.54062	-560.71637	-42.81074	161.69147	-517.91742	-72.66304	142.34189	-602.99768	18.46654	166.84497	-674.73297	54.69165	158.03459	-796.95239	172.63651	183.67264	-707.33289	80.64784	576.27081	-794.35706	57.48042	175.25563	-817.77393	96.87297	1047.87292	-780.36298	-33.74963	487.38339	-769.23914	-4.02017	205.96136	-875.64880	-79.04969	141.18465	-666.51520	-68.50756	161.77824	-734.83594	-23.45658	567.56940				-705.97821	143.07396	574.58002										-721.24164	-26.46359	614.84363	
262	5.220	-713.43939	273.99365	748.94824	-604.59296	94.55496	1422.44202	-665.59778	279.29153	878.35303	-608.06708	214.64996	824.68268	-717.74976	77.67816	216.92461	-612.41211	-6.16800	806.17767	-742.65723	250.30545	638.45502	-679.15045	276.66806	1541.04541	-684.58313	18.66513	522.25299	-745.13672	245.31674	575.94836	-786.05115	254.46124	502.11325	-690.81232	204.58768	534.90851	-660.52118	-83.42688	1541.14539	-712.73376	153.18774	217.52002	-772.44611	222.98729	204.98251	-882.63568	296.12158	144.50882	-675.45166	173.61479	157.34399	-595.18298	224.87766	173.43495	-667.14001	299.89288	159.06172	-629.77197	308.29016	161.05159	-562.14240	263.83823	165.41151	-528.07770	304.24625	146.45256	-675.63751	91.28645	1849.43213				-624.98389	-79.47608	159.56657	-560.71637	-42.81074	161.69147	-517.77277	-72.99162	142.49489	-603.26367	18.50846	166.63429	-674.73297	54.69165	158.03459	-796.96857	172.57310	183.80975	-708.00769	80.71243	576.02979	-794.46259	57.21176	175.15442	-819.36639	96.37614	1048.32312	-780.72797	-33.95168	487.24536	-769.39325	-4.12557	206.03975	-875.64880	-79.04969	141.18465	-666.51520	-68.50756	161.77824	-735.76105	-23.56839	567.13403	-707.18677	-49.55790	708.44147	-705.56195	143.20491	574.39313										-722.21771	-26.88671	615.25818	
263	5.240	-715.31036	273.34357	748.34882	-603.47900	94.00916	1421.60669	-667.86407	278.81598	878.26477	-610.14685	214.61319	824.10846	-717.88947	77.67812	217.07402	-614.20599	-6.53806	806.21100	-744.15747	250.04633	638.52765	-677.37073	277.08484	1541.03760	-685.40839	18.27127	522.27814	-746.73535	245.14987	576.03430	-786.97998	254.63040	502.52679	-691.45734	204.71152	534.84937	-658.37006	-83.63245	1541.09021	-713.03772	153.34000	217.61803	-772.36273	223.03291	204.83327	-882.62518	296.03879	144.44261	-675.45166	173.61479	157.34399	-595.22296	224.83681	173.55251	-667.26691	299.89279	158.89481	-629.74347	308.21127	160.92502	-562.17255	263.94760	165.37256	-528.16150	304.17200	146.42805	-670.44928	91.47033	1849.06018	-612.05573	220.25740	1070.76099	-624.98389	-79.47608	159.56657	-560.87384	-42.72458	161.59985	-517.90448	-72.91978	142.41571	-602.96375	18.63540	167.02034	-674.80518	54.84502	157.94705	-797.00586	172.51653	183.61807	-709.71796	80.18391	575.51935	-794.46301	57.10452	175.03656	-820.79187	95.63483	1048.49780	-781.58850	-34.03194	486.88940	-769.50470	-4.07500	205.93349	-875.94904	-79.04231	141.03226	-666.73761	-68.51833	161.81198	-736.98425	-23.88267	567.73712	-708.03656	-49.13035	707.51703	-706.73596	143.12573	574.90698										-723.67261	-27.35045	615.36609	
264	5.260	-717.56036	273.35690	748.58771	-602.21606	93.90923	1421.15466	-670.13452	278.50772	878.02130	-612.33148	214.42596	823.85992	-717.88947	77.67812	217.07402	-615.34668	-6.91497	805.82318	-745.73047	249.87993	638.44861	-675.07214	276.73483	1540.56799	-686.74506	17.75794	521.84375	-747.86206	244.83717	575.85309	-787.70880	254.43948	502.36758	-692.94116	204.26265	534.87897	-656.03259	-83.92574	1540.79785	-713.03772	153.34000	217.61803	-772.38269	223.08775	204.74901	-882.58704	296.15555	144.64662	-675.34943	173.66139	157.82419	-595.49689	224.97307	173.53770	-667.18689	299.94504	159.15620	-629.69067	308.19513	160.84073	-562.19922	263.86859	165.36826	-528.12280	304.28763	146.42749	-664.35919	91.42054	1848.88855	-613.99646	218.98540	1070.29285	-624.98389	-79.47608	159.56657	-560.79315	-42.78227	161.63481	-517.82971	-72.81959	142.39040	-603.29895	18.59186	166.69304	-674.73297	54.69165	158.03459	-797.00586	172.51653	183.61807	-710.54456	80.04391	575.48505	-794.52618	57.21711	174.87183	-822.80511	95.23228	1049.00427	-782.40619	-33.79982	486.62305	-769.49945	-4.15225	206.01114	-875.97589	-78.81084	141.28232	-666.45392	-68.37227	161.54314	-738.22528	-24.69990	567.88831	-709.89594	-50.32745	707.84869	-707.68250	143.09991	574.96002										-724.84998	-27.65636	614.81995	
265	5.280	-719.99280	273.52838	748.77161	-600.92603	93.76566	1420.19983	-672.21045	278.93112	877.81415	-613.50726	215.36536	824.74371	-717.86414	77.45821	217.40140	-617.42914	-7.03582	805.83539	-747.52411	250.03833	638.38666	-673.01941	276.37738	1539.77893	-688.08380	17.59159	522.22467	-749.30878	244.61253	575.69501	-789.03656	254.25847	501.88440	-694.06232	204.28412	535.06317	-653.37128	-84.24281	1540.68066	-713.03772	153.34000	217.61803	-772.41614	223.02582	204.67044	-882.70941	296.17542	144.57637	-675.38245	173.54991	157.67494	-595.57959	224.97003	173.72511	-667.22430	299.91089	159.08195	-629.77197	308.29016	161.05159	-562.19147	263.63806	165.28491	-528.07397	304.01920	146.39075	-657.50043	91.84742	1848.58691	-615.22894	218.87541	1070.57227	-625.01166	-79.63294	159.55759	-560.98016	-42.77926	161.70717	-517.87225	-72.86690	142.62689	-602.67340	18.26908	166.87283	-674.73297	54.69165	158.03459	-797.12286	172.65585	183.17685	-712.66772	79.86485	575.13422	-794.50446	57.01411	174.93011	-824.51660	94.39870	1049.63281	-783.40033	-34.54723	486.55261	-769.80591	-4.30715	205.78651	-875.99457	-78.94872	141.12155	-666.59399	-68.56399	161.76338	-739.49896	-24.75470	567.76917	-712.19373	-50.05663	707.44031	-710.54980	142.73100	574.60260										-726.81354	-28.08813	614.85406	
266	5.300	-722.22528	273.30222	748.42560	-599.31720	93.59304	1419.23523	-675.09766	278.59525	877.87073	-616.55914	215.11423	824.66943	-718.14532	77.51510	217.18770	-619.53253	-7.32964	805.56989	-749.58881	249.31863	638.22101	-670.94659	276.89105	1539.49524	-688.95996	17.25330	522.59937	-750.87946	244.49922	575.31354	-790.49268	254.12064	501.53973	-695.83435	204.75288	534.85272	-650.20502	-84.26907	1540.26721	-713.14020	153.49341	217.43787	-772.47882	223.13971	204.58809	-882.67053	296.19333	144.58157	-675.37866	173.79250	158.02443	-595.56555	224.97133	173.73482	-667.47614	299.85190	158.78621	-629.77197	308.29016	161.05159	-562.13721	263.84799	165.41367	-528.16150	304.17200	146.42805	-649.92603	92.19673	1848.21753	-618.28607	218.26207	1069.80872	-624.91559	-79.52227	159.52917	-560.95758	-42.66822	161.80058	-517.90448	-72.91978	142.41571	-602.67621	18.27416	166.95656	-674.93597	54.81793	158.03067	-797.24084	172.86372	183.14055	-714.10968	79.42743	575.34662	-794.66235	56.98351	174.78802	-826.79059	93.95596	1050.01355	-784.75836	-34.42048	486.26468	-769.80347	-4.35722	205.73727	-875.99457	-78.94872	141.12155	-666.66168	-68.61391	161.82536	-741.01172	-24.92885	567.07367	-714.24335	-50.39034	707.29901	-710.85181	142.59926	574.26086										-728.72455	-28.72496	615.38623	
267	5.320	-724.25360	273.33502	748.70966	-597.40491	93.49265	1417.98267	-677.78992	278.80084	878.10889	-618.70477	214.78656	824.72980	-718.15179	77.42011	217.33517	-621.79254	-7.35293	805.53809	-751.17615	249.26483	638.08374	-667.70654	276.14575	1538.81348	-691.07275	16.34377	522.74866	-752.29785	244.77496	575.47955	-791.67938	254.07646	501.46704	-696.94580	204.19913	534.84198	-646.87103	-84.57831	1539.92200	-713.25061	153.60706	217.61627	-772.79840	223.16965	204.30928	-882.66003	296.13315	144.60139	-675.56366	173.90982	157.93739	-595.73639	224.87637	173.83821	-667.45953	300.02847	158.80647	-629.72711	308.25757	161.12788	-562.21869	263.84354	165.33723	-528.12280	304.28763	146.42749	-641.32782	92.62556	1847.54675	-620.15588	218.30846	1070.11450	-625.03888	-79.36037	159.54062	-560.99457	-42.69830	161.77104	-518.00793	-73.10864	142.44930	-603.14484	18.23590	167.00946	-674.91833	54.36332	158.48883	-797.11475	172.89185	183.23679	-715.65601	79.16187	575.23956	-793.95825	56.73572	174.46739	-828.66870	93.60738	1050.25916	-786.04083	-34.38667	486.19907	-769.65790	-4.69700	205.39026	-875.65533	-78.94249	141.29453	-666.62329	-68.61125	161.65305	-742.59229	-25.72541	567.36267	-716.45813	-51.06997	706.83630	-712.53204	142.45473	574.33716										-730.12805	-28.94395	615.18829	
268	5.340	-726.64197	273.02280	748.81433	-595.92773	94.00057	1416.51147	-680.54675	278.27774	877.75909	-621.73309	214.53094	824.88617	-718.47034	77.36055	217.22691	-624.40619	-7.81409	805.34851	-753.38177	249.23132	637.98309	-664.95032	276.28934	1538.19849	-692.03119	16.43983	522.77820	-754.09821	244.29288	575.24951	-793.32172	254.09650	501.24597	-698.33820	204.53886	535.37115	-642.91949	-84.83879	1539.36926	-713.28845	153.53830	217.77184	-773.04865	223.19685	204.12291	-882.63745	296.17917	144.55261	-675.42078	173.83031	158.08812	-595.65308	225.07152	173.94743	-667.54218	300.13229	158.91385	-629.82013	308.26038	161.04991	-562.26227	263.76990	165.37192	-528.07770	304.24625	146.45256	-632.40179	92.93257	1846.40649	-623.79785	217.74527	1068.87305	-625.23871	-79.55595	159.50319	-560.93127	-42.55610	161.77644	-517.82715	-72.87961	142.35971	-602.93628	18.12371	167.17581	-674.91833	54.36332	158.48883	-797.29254	172.90752	183.06216	-717.79517	78.65347	574.57086	-794.10242	56.77740	174.43069	-831.53949	92.59241	1051.11951	-787.49890	-34.96140	485.82922	-769.90729	-4.74849	205.30722	-875.65533	-78.94249	141.29453	-666.66681	-68.65458	161.63737	-744.38257	-25.56271	567.13763	-718.83777	-50.76556	706.06445	-714.87738	142.57291	574.06836										-732.42993	-29.07497	614.55914	
